<?xml version="1.0" encoding="UTF-8" standalone="no"?>
<!-- Created with Inkscape (http://www.inkscape.org/) -->

<svg
   xmlns:dc="http://purl.org/dc/elements/1.1/"
   xmlns:cc="http://creativecommons.org/ns#"
   xmlns:rdf="http://www.w3.org/1999/02/22-rdf-syntax-ns#"
   xmlns:svg="http://www.w3.org/2000/svg"
   xmlns="http://www.w3.org/2000/svg"
   xmlns:xlink="http://www.w3.org/1999/xlink"
   xmlns:sodipodi="http://sodipodi.sourceforge.net/DTD/sodipodi-0.dtd"
   xmlns:inkscape="http://www.inkscape.org/namespaces/inkscape"
   width="64"
   height="64"
   viewBox="0 0 16.933333 16.933333"
   version="1.1"
   id="svg8"
   inkscape:version="0.92.4 (5da689c313, 2019-01-14)"
   sodipodi:docname="icon.svg">
  <title
     id="title2363">pf2npc</title>
  <defs
     id="defs2">
    <linearGradient
       inkscape:collect="always"
       id="linearGradient2320">
      <stop
         style="stop-color:#ff0000;stop-opacity:1;"
         offset="0"
         id="stop2316" />
      <stop
         style="stop-color:#fffe00;stop-opacity:0"
         offset="1"
         id="stop2318" />
    </linearGradient>
    <linearGradient
       inkscape:collect="always"
       xlink:href="#linearGradient2320"
       id="linearGradient2322"
       x1="93.182205"
       y1="67.500908"
       x2="114.45721"
       y2="67.500908"
       gradientUnits="userSpaceOnUse"
       spreadMethod="pad" />
    <linearGradient
       inkscape:collect="always"
       xlink:href="#linearGradient2320"
       id="linearGradient2357"
       gradientUnits="userSpaceOnUse"
       x1="93.182205"
       y1="67.500908"
       x2="114.45721"
       y2="67.500908"
       spreadMethod="pad" />
  </defs>
  <sodipodi:namedview
     id="base"
     pagecolor="#ffffff"
     bordercolor="#666666"
     borderopacity="1.0"
     inkscape:pageopacity="0.0"
     inkscape:pageshadow="2"
     inkscape:zoom="5.6"
     inkscape:cx="103.51786"
     inkscape:cy="24.285714"
     inkscape:document-units="mm"
     inkscape:current-layer="layer1"
     showgrid="false"
     units="px"
     inkscape:window-width="2560"
     inkscape:window-height="1377"
     inkscape:window-x="-8"
     inkscape:window-y="-8"
     inkscape:window-maximized="1" />
  <metadata
     id="metadata5">
    <rdf:RDF>
      <cc:Work
         rdf:about="">
        <dc:format>image/svg+xml</dc:format>
        <dc:type
           rdf:resource="http://purl.org/dc/dcmitype/StillImage" />
        <dc:title>pf2npc</dc:title>
      </cc:Work>
    </rdf:RDF>
  </metadata>
  <g
     inkscape:label="Layer 1"
     inkscape:groupmode="layer"
     id="layer1"
     transform="translate(0,-280.06667)">
    <g
       aria-label="pf2
npc"
       style="font-style:normal;font-variant:normal;font-weight:normal;font-stretch:normal;font-size:14.11111069px;line-height:1.25;font-family:Gigi;-inkscape-font-specification:'Gigi, Normal';font-variant-ligatures:normal;font-variant-caps:normal;font-variant-numeric:normal;font-feature-settings:normal;text-align:start;letter-spacing:0px;word-spacing:0px;writing-mode:lr-tb;text-anchor:start;fill:url(#linearGradient2322);fill-opacity:1;fill-rule:nonzero;stroke:#080000;stroke-width:0.26458332;stroke-opacity:1"
       id="text817"
       transform="matrix(1.200325,0,0,1.200325,-108.15465,216.05225)">
      <path
         d="m 100.23326,58.738128 q -0.0413,0.124023 -0.0413,0.861274 0,0.186035 -0.13092,0.564995 -0.124021,0.372071 -0.241154,0.551216 v 0.04134 l -0.0689,-0.04134 -0.08268,0.227376 -0.482313,0.36518 v 0.04134 h -0.0689 v 0.117133 l -0.447863,0.02756 -0.599446,-0.254937 -0.179145,-0.888834 0.296278,-0.08268 q 0.124023,0.275608 0.254937,0.675239 l 0.192925,0.137804 h 0.103353 l -0.02756,-0.02756 0.110243,-0.04134 v -0.0689 l 0.227377,-0.110243 0.137804,-0.158474 0.268717,-0.7028 q -0.02756,-0.813042 0.103353,-1.233344 l -0.03445,-0.137804 -0.0689,-0.08268 v -0.10336 L 99.261741,58.07667 q 0.0069,-0.04134 0.0069,-0.08957 0,-0.192925 -0.179145,-0.509874 -0.206706,-0.35829 -0.241157,-0.482313 l -0.110243,-0.03445 -0.103353,-0.220486 -0.110243,0.137803 -0.04134,-0.09646 -0.0689,0.0689 h -0.158474 q 0,0.241156 -0.227377,0.440972 h -0.02756 l -0.151584,0.192925 -0.02756,-0.04134 q -0.220486,0.144694 -0.413412,0.406521 l -0.08268,0.413412 -0.144694,0.227376 0.03445,0.475423 0.110243,0.158475 q -0.144694,0.303168 -0.144694,0.957736 0,0.08268 0.02067,0.296278 0.02067,0.186035 0.01378,0.296279 l 0.08268,0.08268 q -0.0069,0.117133 -0.06201,0.38585 -0.05512,0.268718 -0.05512,0.392741 0,0.372071 0.07579,0.482314 l -0.04134,0.110243 0.08268,0.110243 v 0.158474 l 0.02756,0.0689 q 0,0.36518 -0.110243,0.592557 0.04134,0.337619 0.04134,0.36518 0,0.05512 -0.04134,0.158474 -0.03445,0.103353 -0.03445,0.151584 0,1.502062 0.186035,1.853462 l -0.04134,0.110243 h 0.110243 q 0.02067,0.206705 -0.02756,0.454752 l 0.103353,0.179145 v 0.268718 l 0.04134,0.0689 0.110243,0.07579 0.04134,0.0689 h -0.04134 v 0.151585 l -0.186035,-0.110243 -0.110243,0.110243 -0.151584,-0.0689 -0.144694,-0.192926 h -0.296278 l -0.296278,-0.213595 -0.151585,0.0689 -0.07579,-0.0689 h -0.337619 l -0.04134,-0.117134 q 0.09646,-0.01378 0.268717,-0.151584 0.137804,-0.475423 0.110243,-0.551215 h 0.117134 q -0.117134,-0.227376 -0.117134,-0.523655 0.08957,-0.241156 0.186035,-0.516764 h -0.0689 q 0.02756,-0.144694 0.02756,-0.227376 0,-0.268718 -0.02756,-0.413412 l 0.02756,-0.0689 q -0.05512,-0.0689 -0.03445,-0.489203 0.03445,-0.668349 0.03445,-0.551215 0,-0.124024 -0.03445,-0.378961 -0.03445,-0.254937 -0.03445,-0.37207 0,-0.130914 0.05512,-0.406522 0.05512,-0.275607 0.05512,-0.413411 0,-0.05512 -0.03445,-0.172255 -0.02756,-0.117133 -0.03445,-0.165364 -0.04134,-0.36518 -0.04134,-0.778592 0,-0.220486 0.06201,-0.613227 0.08268,-0.530545 0.08957,-0.613227 l 0.0689,-0.110243 q -0.0689,-0.950846 -0.0689,-1.157552 0,-0.144694 0.0689,-0.702799 l -0.110243,0.08268 -0.254937,0.523654 -0.04134,-0.04823 q -0.05512,0.186035 -0.296278,0.516764 -0.241157,0.323839 -0.406521,0.447863 v 0.220486 l -0.268718,0.344509 -0.02756,-0.04134 -0.227377,0.110243 -0.158474,-0.02756 -0.02756,0.137803 -0.08268,0.07579 0.08268,0.04134 -0.08268,0.04134 -0.144694,0.254937 q -0.234267,0.144694 -0.33762,0.268717 l -0.179144,0.02756 -0.06201,0.08268 -0.110243,0.0689 q -0.08268,-0.05512 -0.282498,-0.110243 l 0.04134,-0.08268 0.158474,-0.07579 q 0.310059,-0.440972 0.551216,-0.516765 l 0.337619,-0.440972 q 0.158474,-0.05512 0.689019,-0.785481 0.489204,-0.668349 0.606337,-0.923286 l 0.158474,-0.124023 0.02756,-0.186036 0.110243,-0.02756 0.158475,-0.378961 -0.04134,-0.323839 0.110243,-0.227376 h 0.04134 q 0.0689,-0.220486 0.0689,-1.157552 0,-0.09646 -0.04134,-0.186035 l 0.117134,-0.04134 v -0.213596 l 0.0689,-0.04134 0.08268,0.04134 q 0.351399,-0.248047 0.523654,-0.261828 0.02756,-0.07579 0.213596,-0.254937 h 0.08268 l 0.02756,0.137804 q -0.07579,0.206706 -0.09646,0.599447 -0.02756,0.413411 -0.08957,0.599446 0.07579,0.213596 0.07579,0.323839 0,0.213596 -0.06201,0.564996 -0.0689,0.406521 -0.08268,0.551215 l 0.04134,0.08268 -0.08268,0.551216 0.110243,0.04134 h 0.117133 l 0.110243,-0.179145 h 0.04134 l -0.04134,-0.08268 h 0.0689 q 0.07579,-0.137804 0.385851,-0.413412 0.392741,-0.172255 1.026638,-0.110243 l 0.268718,0.151584 h 0.110243 l 0.07579,0.117134 h 0.110243 v 0.110243 l 0.158474,0.186035 v 0.110243 l 0.09646,0.186035 v 0.110243 l 0.08268,0.110243 q 0.0827,0.186035 0.10336,0.654568 0.0207,0.440972 0.0827,0.530545 z"
         style="fill:url(#linearGradient2357);fill-opacity:1;fill-rule:nonzero;stroke:#080000;stroke-opacity:1"
         id="path823"
         inkscape:connector-curvature="0" />
    </g>
  </g>
</svg>
