<?xml version="1.0" encoding="UTF-8" standalone="no"?>
<!-- Created with Inkscape (http://www.inkscape.org/) -->

<svg
   xmlns:dc="http://purl.org/dc/elements/1.1/"
   xmlns:cc="http://creativecommons.org/ns#"
   xmlns:rdf="http://www.w3.org/1999/02/22-rdf-syntax-ns#"
   xmlns:svg="http://www.w3.org/2000/svg"
   xmlns="http://www.w3.org/2000/svg"
   xmlns:xlink="http://www.w3.org/1999/xlink"
   xmlns:sodipodi="http://sodipodi.sourceforge.net/DTD/sodipodi-0.dtd"
   xmlns:inkscape="http://www.inkscape.org/namespaces/inkscape"
   width="44"
   height="26"
   viewBox="0 0 23.283332 13.758332"
   version="1.1"
   id="svg8"
   inkscape:version="0.92.4 (5da689c313, 2019-01-14)"
   sodipodi:docname="logo2.svg">
  <title
     id="title2363">pf2npc</title>
  <defs
     id="defs2">
    <linearGradient
       inkscape:collect="always"
       id="linearGradient2320">
      <stop
         style="stop-color:#ff0000;stop-opacity:1;"
         offset="0"
         id="stop2316" />
      <stop
         style="stop-color:#fffe00;stop-opacity:0"
         offset="1"
         id="stop2318" />
    </linearGradient>
    <linearGradient
       inkscape:collect="always"
       xlink:href="#linearGradient2320"
       id="linearGradient2322"
       x1="93.182205"
       y1="67.500908"
       x2="114.45721"
       y2="67.500908"
       gradientUnits="userSpaceOnUse"
       spreadMethod="pad" />
    <linearGradient
       inkscape:collect="always"
       xlink:href="#linearGradient2320"
       id="linearGradient2351"
       gradientUnits="userSpaceOnUse"
       x1="93.182205"
       y1="67.500908"
       x2="114.45721"
       y2="67.500908"
       spreadMethod="pad"
       gradientTransform="translate(13.226301,-12.34567)" />
    <linearGradient
       inkscape:collect="always"
       xlink:href="#linearGradient2320"
       id="linearGradient2353"
       gradientUnits="userSpaceOnUse"
       x1="93.182205"
       y1="67.500908"
       x2="114.45721"
       y2="67.500908"
       spreadMethod="pad"
       gradientTransform="translate(13.226301,-12.34567)" />
    <linearGradient
       inkscape:collect="always"
       xlink:href="#linearGradient2320"
       id="linearGradient2355"
       gradientUnits="userSpaceOnUse"
       x1="93.182205"
       y1="67.500908"
       x2="114.45721"
       y2="67.500908"
       spreadMethod="pad"
       gradientTransform="translate(13.226301,-12.34567)" />
    <linearGradient
       inkscape:collect="always"
       xlink:href="#linearGradient2320"
       id="linearGradient2357"
       gradientUnits="userSpaceOnUse"
       x1="93.182205"
       y1="67.500908"
       x2="114.45721"
       y2="67.500908"
       spreadMethod="pad" />
    <linearGradient
       inkscape:collect="always"
       xlink:href="#linearGradient2320"
       id="linearGradient2359"
       gradientUnits="userSpaceOnUse"
       x1="93.182205"
       y1="67.500908"
       x2="114.45721"
       y2="67.500908"
       spreadMethod="pad" />
    <linearGradient
       inkscape:collect="always"
       xlink:href="#linearGradient2320"
       id="linearGradient2361"
       gradientUnits="userSpaceOnUse"
       x1="93.182205"
       y1="67.500908"
       x2="114.45721"
       y2="67.500908"
       spreadMethod="pad" />
  </defs>
  <sodipodi:namedview
     id="base"
     pagecolor="#ffffff"
     bordercolor="#666666"
     borderopacity="1.0"
     inkscape:pageopacity="0.0"
     inkscape:pageshadow="2"
     inkscape:zoom="15.839192"
     inkscape:cx="42.758325"
     inkscape:cy="24.285714"
     inkscape:document-units="mm"
     inkscape:current-layer="layer1"
     showgrid="false"
     units="px"
     inkscape:window-width="2560"
     inkscape:window-height="1377"
     inkscape:window-x="-8"
     inkscape:window-y="-8"
     inkscape:window-maximized="1" />
  <metadata
     id="metadata5">
    <rdf:RDF>
      <cc:Work
         rdf:about="">
        <dc:format>image/svg+xml</dc:format>
        <dc:type
           rdf:resource="http://purl.org/dc/dcmitype/StillImage" />
        <dc:title>pf2npc</dc:title>
      </cc:Work>
    </rdf:RDF>
  </metadata>
  <g
     inkscape:label="Layer 1"
     inkscape:groupmode="layer"
     id="layer1"
     transform="translate(0,-283.24168)">
    <g
       aria-label="pf2 npc"
       style="font-style:normal;font-variant:normal;font-weight:normal;font-stretch:normal;font-size:14.11111069px;line-height:1.25;font-family:Gigi;-inkscape-font-specification:'Gigi, Normal';font-variant-ligatures:normal;font-variant-caps:normal;font-variant-numeric:normal;font-feature-settings:normal;text-align:start;letter-spacing:0px;word-spacing:0px;writing-mode:lr-tb;text-anchor:start;fill:url(#linearGradient2322);fill-opacity:1;fill-rule:nonzero;stroke:#080000;stroke-width:0.26458332;stroke-opacity:1"
       id="text817"
       transform="matrix(0.6001625,0,0,0.6001625,-54.45439,253.52995)">
      <path
         d="m 100.23326,58.738128 q -0.0413,0.124023 -0.0413,0.861274 0,0.186035 -0.13092,0.564995 -0.124021,0.372071 -0.241154,0.551216 v 0.04134 l -0.0689,-0.04134 -0.08268,0.227376 -0.482313,0.36518 v 0.04134 h -0.0689 v 0.117133 l -0.447863,0.02756 -0.599446,-0.254937 -0.179145,-0.888834 0.296278,-0.08268 q 0.124023,0.275608 0.254937,0.675239 l 0.192925,0.137804 h 0.103353 l -0.02756,-0.02756 0.110243,-0.04134 v -0.0689 l 0.227377,-0.110243 0.137804,-0.158474 0.268717,-0.7028 q -0.02756,-0.813042 0.103353,-1.233344 l -0.03445,-0.137804 -0.0689,-0.08268 v -0.10336 L 99.261741,58.07667 q 0.0069,-0.04134 0.0069,-0.08957 0,-0.192925 -0.179145,-0.509874 -0.206706,-0.35829 -0.241157,-0.482313 l -0.110243,-0.03445 -0.103353,-0.220486 -0.110243,0.137803 -0.04134,-0.09646 -0.0689,0.0689 h -0.158474 q 0,0.241156 -0.227377,0.440972 h -0.02756 l -0.151584,0.192925 -0.02756,-0.04134 q -0.220486,0.144694 -0.413412,0.406521 l -0.08268,0.413412 -0.144694,0.227376 0.03445,0.475423 0.110243,0.158475 q -0.144694,0.303168 -0.144694,0.957736 0,0.08268 0.02067,0.296278 0.02067,0.186035 0.01378,0.296279 l 0.08268,0.08268 q -0.0069,0.117133 -0.06201,0.38585 -0.05512,0.268718 -0.05512,0.392741 0,0.372071 0.07579,0.482314 l -0.04134,0.110243 0.08268,0.110243 v 0.158474 l 0.02756,0.0689 q 0,0.36518 -0.110243,0.592557 0.04134,0.337619 0.04134,0.36518 0,0.05512 -0.04134,0.158474 -0.03445,0.103353 -0.03445,0.151584 0,1.502062 0.186035,1.853462 l -0.04134,0.110243 h 0.110243 q 0.02067,0.206705 -0.02756,0.454752 l 0.103353,0.179145 v 0.268718 l 0.04134,0.0689 0.110243,0.07579 0.04134,0.0689 h -0.04134 v 0.151585 l -0.186035,-0.110243 -0.110243,0.110243 -0.151584,-0.0689 -0.144694,-0.192926 h -0.296278 l -0.296278,-0.213595 -0.151585,0.0689 -0.07579,-0.0689 h -0.337619 l -0.04134,-0.117134 q 0.09646,-0.01378 0.268717,-0.151584 0.137804,-0.475423 0.110243,-0.551215 h 0.117134 q -0.117134,-0.227376 -0.117134,-0.523655 0.08957,-0.241156 0.186035,-0.516764 h -0.0689 q 0.02756,-0.144694 0.02756,-0.227376 0,-0.268718 -0.02756,-0.413412 l 0.02756,-0.0689 q -0.05512,-0.0689 -0.03445,-0.489203 0.03445,-0.668349 0.03445,-0.551215 0,-0.124024 -0.03445,-0.378961 -0.03445,-0.254937 -0.03445,-0.37207 0,-0.130914 0.05512,-0.406522 0.05512,-0.275607 0.05512,-0.413411 0,-0.05512 -0.03445,-0.172255 -0.02756,-0.117133 -0.03445,-0.165364 -0.04134,-0.36518 -0.04134,-0.778592 0,-0.220486 0.06201,-0.613227 0.08268,-0.530545 0.08957,-0.613227 l 0.0689,-0.110243 q -0.0689,-0.950846 -0.0689,-1.157552 0,-0.144694 0.0689,-0.702799 l -0.110243,0.08268 -0.254937,0.523654 -0.04134,-0.04823 q -0.05512,0.186035 -0.296278,0.516764 -0.241157,0.323839 -0.406521,0.447863 v 0.220486 l -0.268718,0.344509 -0.02756,-0.04134 -0.227377,0.110243 -0.158474,-0.02756 -0.02756,0.137803 -0.08268,0.07579 0.08268,0.04134 -0.08268,0.04134 -0.144694,0.254937 q -0.234267,0.144694 -0.33762,0.268717 l -0.179144,0.02756 -0.06201,0.08268 -0.110243,0.0689 q -0.08268,-0.05512 -0.282498,-0.110243 l 0.04134,-0.08268 0.158474,-0.07579 q 0.310059,-0.440972 0.551216,-0.516765 l 0.337619,-0.440972 q 0.158474,-0.05512 0.689019,-0.785481 0.489204,-0.668349 0.606337,-0.923286 l 0.158474,-0.124023 0.02756,-0.186036 0.110243,-0.02756 0.158475,-0.378961 -0.04134,-0.323839 0.110243,-0.227376 h 0.04134 q 0.0689,-0.220486 0.0689,-1.157552 0,-0.09646 -0.04134,-0.186035 l 0.117134,-0.04134 v -0.213596 l 0.0689,-0.04134 0.08268,0.04134 q 0.351399,-0.248047 0.523654,-0.261828 0.02756,-0.07579 0.213596,-0.254937 h 0.08268 l 0.02756,0.137804 q -0.07579,0.206706 -0.09646,0.599447 -0.02756,0.413411 -0.08957,0.599446 0.07579,0.213596 0.07579,0.323839 0,0.213596 -0.06201,0.564996 -0.0689,0.406521 -0.08268,0.551215 l 0.04134,0.08268 -0.08268,0.551216 0.110243,0.04134 h 0.117133 l 0.110243,-0.179145 h 0.04134 l -0.04134,-0.08268 h 0.0689 q 0.07579,-0.137804 0.385851,-0.413412 0.392741,-0.172255 1.026638,-0.110243 l 0.268718,0.151584 h 0.110243 l 0.07579,0.117134 h 0.110243 v 0.110243 l 0.158474,0.186035 v 0.110243 l 0.09646,0.186035 v 0.110243 l 0.08268,0.110243 q 0.0827,0.186035 0.10336,0.654568 0.0207,0.440972 0.0827,0.530545 z"
         style="fill:url(#linearGradient2357);fill-opacity:1;fill-rule:nonzero;stroke:#080000;stroke-opacity:1"
         id="path823"
         inkscape:connector-curvature="0" />
      <path
         d="m 107.93649,52.419823 -0.17914,0.110243 q -0.11025,0.378961 -0.0758,0.640788 l -0.24804,0.248047 -0.0482,0.186035 -0.0689,-0.02756 -0.40652,0.337619 -0.0896,-0.04134 v 0.110243 l -0.11024,0.07579 -0.25494,0.04134 q -0.85438,-0.406522 -1.04042,-0.751031 l -0.0758,-0.406522 q 0.0965,-0.406521 0.34451,-0.888834 l 0.24805,-0.268718 0.45475,-0.117133 0.25494,0.227376 q 0.11024,0.227377 0.11024,0.682129 -0.0344,0.144694 -0.0689,0.206706 l 0.0276,0.117133 -0.0965,0.08268 h -0.15847 l -0.0689,-0.08268 v -0.323839 l 0.0689,-0.117133 v -0.179145 q 0,-0.02067 -0.0207,-0.103353 -0.0207,-0.08268 -0.0207,-0.09646 -0.24805,0 -0.48231,0.151584 -0.0896,0.234266 -0.13781,0.592556 l 0.0689,0.268718 -0.0413,0.144694 0.26872,0.337619 0.40652,0.0689 q 0.46164,-0.323839 0.66835,-0.957737 l 0.0413,0.09646 h 0.0689 l 0.15848,-0.661458 -0.0896,-0.158475 -0.11024,0.04823 q 0.0413,-0.509874 0.0413,-0.523655 0,-0.02756 -0.0413,-0.413411 L 107.0201,50.85575 q -0.28939,-0.179145 -0.81994,-0.144694 v -0.04134 l -0.15158,-0.0689 -0.0413,0.137803 -0.11714,0.04134 -0.0689,-0.04134 -0.0689,0.199816 -0.0689,-0.08268 -0.0896,0.220486 -0.0276,-0.0689 -0.11025,0.04134 -0.0413,0.103353 h 0.0689 q -0.21359,0.337619 -0.41341,0.902615 -0.0207,0.124023 -0.0689,0.36518 -0.0138,0.05512 -0.0689,0.172255 -0.0551,0.110243 -0.0689,0.165364 -0.007,0.117134 -0.0414,0.33762 -0.11024,0.268717 -0.22737,0.819932 0.0413,0.09646 0.0689,0.323839 l 0.0827,0.04134 q 0.0276,0.117134 0.0276,0.186036 0,0.241156 -0.0896,0.654568 -0.10335,0.475423 -0.11713,0.640787 0.0138,0.303169 -0.0413,0.902615 l -0.0758,0.117134 0.0758,0.02756 0.0413,0.151585 -0.0896,0.144694 q 0.2067,0.165364 0.56499,0.08268 l 0.0276,0.103353 1.01975,-0.03445 0.40652,-0.179145 -0.0413,-0.08268 0.22738,-0.144694 0.0689,-0.110243 -0.13781,-0.158475 -0.19981,0.199816 -0.11024,-0.227377 0.0413,-0.186035 0.15158,0.03445 0.1447,-0.07579 q 0.12402,0.151584 0.33761,0.254937 l -0.0413,0.378961 -0.18603,0.144694 v 0.08268 l -0.17915,0.144694 -0.18603,0.04134 -0.0827,0.0689 v 0.110243 h -0.0758 l -0.0689,0.144694 -0.88883,0.110243 v -0.110243 l -0.11025,-0.09646 v -0.04823 h -0.49609 l -0.1378,0.254937 q 0.0413,0.385851 0.0413,0.385851 -0.0551,0.275607 -0.0896,0.36518 l 0.0482,0.179145 q -0.0827,0.165364 -0.18604,0.70969 l -0.11024,0.151584 0.0276,0.117133 -0.0758,0.110243 0.0482,0.227376 0.17914,0.02756 0.0413,0.110243 v 0.296278 l -0.11024,0.158475 q -0.0896,0.427192 -0.22737,0.661458 l 0.0413,0.117133 -0.0413,0.220486 0.0413,0.07579 -0.26872,0.861274 -0.0689,-0.04823 q -0.0689,0.282498 -0.0413,0.751031 h -0.0276 l -0.19981,0.523654 -0.11024,-0.04134 -0.0689,0.33762 0.0413,0.110243 v 0.227376 l 0.0689,0.137804 q -0.0551,0.73725 -0.18604,0.937066 l -0.11024,0.0689 0.0413,0.04134 -0.0827,0.0689 -0.11024,0.227376 -0.10336,0.04134 -0.0413,0.110243 -0.26872,0.186035 -0.0689,0.144694 q -0.3514,0.234267 -1.00597,0.447863 h -0.0689 l -0.11024,0.0689 q -0.2136,-0.0689 -0.29628,-0.0689 -0.0276,0 -0.79237,0.04134 l -0.17915,-0.192926 -0.344506,-0.144694 -0.475423,-0.447862 q -0.130914,-0.241157 -0.199815,-0.571886 -0.04823,-0.282498 -0.09646,-0.571886 0.117133,-0.716579 0.268717,-1.047309 l 0.179145,-0.110243 0.02756,-0.117133 0.08957,-0.04134 v -0.0689 l 0.179145,-0.158474 h 0.07579 q 0.144694,-0.124024 0.406527,-0.179145 0.28249,0.124023 0.48231,0.08268 l 0.26183,0.09646 0.0758,0.117133 0.33762,0.151584 0.29628,0.337619 -0.0413,0.303169 0.0827,0.0689 v 0.151584 l 0.0689,0.103353 -0.0689,0.110243 0.0276,0.110243 -0.0276,0.08957 0.0276,0.02756 v 0.151584 q -0.1378,0.282498 -0.1378,0.413412 l -0.22738,0.220486 -0.26872,0.03445 -0.0276,-0.03445 h -0.18603 l -0.19293,0.144694 -0.29628,-0.0689 -0.29628,-0.385851 q -0.007,-0.04134 -0.0413,-0.213596 -0.0344,-0.151584 -0.0344,-0.220486 0,-0.01378 0.0413,-0.482313 l 0.10336,-0.151584 0.11024,-0.04134 0.0413,0.192925 -0.0689,0.296278 q 0.11713,0.220486 0.22737,0.620117 l 0.0689,-0.09646 0.14469,0.186035 0.11024,-0.158475 0.18604,-0.110243 0.15158,-0.254937 0.0413,-0.227376 q -0.0551,-0.227376 -0.19292,-0.36518 l -0.0345,0.0689 v -0.482314 l -0.15159,-0.151584 -0.18603,0.04134 -0.25494,-0.186035 h -0.378962 q -0.05512,0.172255 -0.296279,0.413412 -0.124023,0.310058 -0.0689,0.702799 l -0.04134,0.07579 0.08268,0.137804 q -0.04134,0.179145 0.186035,0.861274 l 0.475426,0.633897 0.18604,0.110243 0.48231,0.03445 0.0827,-0.07579 h 0.11024 l 0.0276,-0.0689 0.0896,0.04134 q 0.19292,-0.06201 0.40652,-0.04134 v 0.04134 q 0.10335,-0.06201 0.18603,-0.192926 l 0.22049,-0.117133 -0.0413,-0.137804 0.25494,-0.117133 0.19981,-0.337619 0.0689,-0.02756 0.1447,-0.406521 0.0827,-0.08957 -0.0413,-0.0689 0.0689,-0.04134 0.0413,0.158474 h 0.0413 q 0.0276,-0.103352 0.0276,-0.296278 0,-0.02067 -0.0138,-0.06201 -0.0138,-0.04134 -0.0138,-0.05512 l -0.11024,-0.0689 -0.11713,0.110243 -0.0413,-0.151584 q 0.11714,-0.564996 0.11714,-0.888835 0,-0.130913 -0.0207,-0.37896 -0.0207,-0.241157 -0.0207,-0.37207 0,-0.261828 0.16536,-0.744141 0.17226,-0.482313 0.17226,-0.737251 0,-0.103352 -0.0758,-0.496093 l 0.11714,-0.406521 0.0276,0.04134 0.0827,-0.227377 -0.0413,-0.110243 0.0413,-0.02756 0.0689,0.0689 0.0758,-0.04134 0.22049,-0.406521 -0.0689,-0.02756 h -0.17915 q 0.0896,-0.875054 0.0689,-1.205783 0.17914,-0.303168 0.17914,-0.516764 l -0.0689,-0.323839 -0.0827,0.02756 v -0.296278 h -0.1447 v -0.117133 l -0.15158,-0.02756 -0.11024,-0.08268 -0.0345,0.110243 q -0.0138,0 -0.0758,-0.01378 -0.062,-0.01378 -0.0758,-0.01378 l -0.77859,0.02756 -0.22049,0.117133 h -0.0758 v 0.04134 l -0.11024,0.02756 q -0.13781,0.172255 -0.15848,0.268718 h -0.11024 l -0.0276,0.337619 0.0689,0.110243 -0.0413,0.07579 0.11024,0.179145 h 0.0896 l 0.11024,0.04134 -0.0413,0.186035 h -0.11714 l -0.0689,0.0689 -0.0413,-0.04134 -0.0689,0.04134 -0.41341,-0.227376 -0.11025,-0.248047 0.11025,-0.158474 0.11713,-0.482314 q 0.46164,-0.447862 0.8406,-0.606336 0.33762,-0.144695 1.01975,-0.206706 v -0.04134 l 0.50988,-0.03445 q -0.0276,-0.392741 -0.0276,-0.592557 0,0 0.1378,-0.558105 l 0.0896,0.110243 0.0689,-0.110243 -0.0413,-0.186035 q 0.0827,-0.303169 0.12403,-0.757921 0.0276,-0.385851 0.0551,-0.764811 0.0896,-0.234267 0.22737,-0.70969 0.0207,-0.289388 0.22738,-0.930176 v -0.110243 q 0.0689,-0.08957 0.15158,-0.385851 0.16537,-0.09646 0.31006,-0.447862 0.17226,-0.440972 0.31695,-0.627007 0.2825,-0.36518 0.81304,-0.558106 l 0.0896,0.199816 0.22048,-0.08957 h 0.1447 l 0.0689,-0.110243 0.15847,-0.02756 q 0.33762,0.08268 0.47543,0.227377 l 0.0689,0.110243 0.31695,0.213596 -0.0482,0.04134 0.11713,0.110243 0.0276,0.144694 0.26872,0.37896 z"
         style="fill:url(#linearGradient2359);fill-opacity:1;fill-rule:nonzero;stroke:#080000;stroke-opacity:1"
         id="path825"
         inkscape:connector-curvature="0" />
      <path
         d="m 112.95255,60.012813 q -0.0207,0.144694 -0.15847,0.33762 0.007,0.0689 0.007,0.110243 0,0.144694 -0.0758,0.296278 l 0.0689,0.07579 -0.0689,0.110243 0.0689,0.254937 -0.22738,0.08268 -0.11024,0.09646 -0.0276,0.08957 -0.33762,0.02756 -0.18604,-0.213596 -0.26872,-0.04134 v -0.0689 l -0.1378,-0.117133 h -0.10335 q -0.39274,0 -0.4203,0.02756 l -0.67524,-0.110243 -0.55122,0.158474 -0.22737,-0.07579 -0.0414,0.07579 -0.36518,0.248047 -0.22737,0.04823 -0.0689,0.151584 -0.18604,0.186036 -0.15847,0.02756 q -0.31695,-0.206705 -0.93018,-0.509874 l 0.11713,-0.110243 0.0413,0.02756 0.0414,-0.227376 h -0.15848 l -0.0413,-0.0689 q 0,-0.248047 0.19293,-0.695909 0.17914,-0.413412 0.19292,-0.461643 h 0.11024 l 0.40653,-0.551216 0.0276,-0.110243 -0.0689,0.04134 -0.0413,-0.08268 0.19982,-0.07579 -0.0413,0.186035 0.0689,0.04134 0.29628,-0.633897 0.0413,0.151584 q 0.0896,-0.09646 0.29628,-0.268717 l 0.44786,-0.744141 q 0.35829,-0.248047 0.66835,-0.36518 0.17914,-0.434082 0.7717,-1.274685 l -0.0965,0.04823 -0.0413,-0.117133 q 0.12402,-0.310059 0.12402,-0.620117 0,-0.08957 -0.0138,-0.227377 l -0.15159,-0.268717 -0.22737,-0.0689 -0.29628,-0.447862 -0.25494,-0.07579 -0.18603,-0.151584 q -0.0482,0.0069 -0.11025,0.0069 -0.11713,0 -0.40652,-0.07579 -0.28249,-0.07579 -0.40652,-0.07579 -0.0827,0 -0.30317,0.07579 l 0.0276,0.04134 -0.59255,0.137803 -0.11024,0.117134 q -0.0345,0.186035 -0.29628,0.516764 -0.0276,0.227376 -0.0276,0.37207 0,0.158475 0.0276,0.406521 l 0.33762,0.268718 0.29627,-0.0689 v 0.179145 l 0.11714,-0.04134 0.1378,-0.179145 v -0.158475 l -0.0689,-0.186035 0.15158,-0.137804 v -0.268717 h -0.0827 l -0.0276,0.110243 -0.15847,0.04134 v 0.03445 h -0.11025 l -0.1378,-0.186035 0.0276,-0.0689 0.15158,-0.07579 0.0689,-0.110243 0.0896,-0.04134 0.0965,0.0689 0.26872,0.04134 q 0.15158,0.110243 0.29628,0.482313 0,0.392741 -0.15848,0.7028 h -0.32384 l -0.0413,0.268717 -0.25493,0.117133 q -0.19982,-0.137803 -0.565,-0.337619 l -0.11024,0.04134 -0.0276,-0.08957 h -0.0827 q -0.19292,-0.303169 -0.52365,-0.475423 l -0.0276,-0.413412 -0.15848,-0.337619 0.11714,-0.406522 0.11024,0.08268 0.22738,-0.296278 0.22737,-0.110243 q 0.10336,-0.124024 0.17915,-0.413412 0.17225,0.02067 0.26183,0.02067 0.32383,0 0.5581,-0.199816 h 0.18604 l 0.11024,-0.08957 -0.0413,-0.0689 q 0.17225,0.01378 0.44097,0.04134 h 0.007 q 0.0896,0 0.33762,-0.08268 l 0.0344,0.08268 0.0413,-0.04134 0.17915,0.04134 0.15847,-0.04134 0.1378,0.117133 0.29628,0.04134 v 0.0689 l 0.26872,0.02756 v 0.110243 l 0.14469,-0.02756 0.15159,0.02756 0.11713,-0.02756 q 0.17226,0.234267 0.29628,0.323839 l -0.22738,0.08957 q 0.36518,0.179144 0.59256,0.516764 l 0.18604,0.523654 0.22048,0.213596 -0.0689,0.04134 -0.0689,0.158475 0.0276,0.0689 q -0.0689,0.03445 -0.11024,0.186035 l 0.0827,0.179145 -0.0413,0.117133 v 0.261827 l -0.18604,0.213596 -0.18603,0.08268 -0.33762,0.440973 -0.0413,-0.02756 -0.0276,0.0689 -0.0827,-0.04134 q -0.77859,0.509874 -0.96462,0.999077 l -0.29628,0.227377 v 0.08268 l -0.11025,0.02756 -0.18603,0.344509 -0.15158,0.04134 -0.0414,0.09646 -0.0276,-0.02756 -0.11713,0.110243 -0.0413,0.330729 0.0413,0.110244 -0.11024,0.37896 -0.0689,0.0689 h -0.11714 l -0.0689,0.186035 -0.0413,0.04134 0.0413,0.02756 -0.11024,0.199816 h 0.36518 q 0.86816,-0.0069 1.18511,-0.158475 l 0.26872,0.158475 q 0.16536,0.02067 0.22048,0.02756 0.64768,0.110243 0.70969,0.110243 v 0 0 0 q 0,0 0,0 l 0.0276,0.117134 0.15848,0.04134 -0.0413,0.0689 v 0.04134 l 0.11024,0.02756 0.22738,-0.02756 q 0.11024,-0.144694 0.44786,-0.516765 0.14469,-0.08268 0.32384,-0.268717 z m -3.72759,-0.337619 v -0.186035 h -0.0689 v 0.04134 l -0.0896,0.0689 0.0896,0.117133 z"
         style="fill:url(#linearGradient2361);fill-opacity:1;fill-rule:nonzero;stroke:#080000;stroke-opacity:1"
         id="path827"
         inkscape:connector-curvature="0" />
      <path
         d="m 114.69979,65.388714 -0.11024,0.09646 -0.18604,0.07579 v 0.0689 q -0.17225,-0.0689 -0.41341,-0.0689 -0.1378,0 -0.24804,0.02756 l -0.22738,-0.117133 -0.0413,0.07579 -0.41341,-0.38585 -0.0689,-0.282498 0.0413,-0.165365 -0.11024,-0.158474 -0.33762,-0.179145 -0.0689,-0.254937 -0.11714,-0.04134 q -0.46164,-0.778592 -0.47542,-1.047309 l 0.0276,-0.04134 -0.0758,-0.02756 -0.1378,0.0689 0.0276,0.04134 -0.25494,0.254937 q -0.062,0.158474 -0.22738,1.157552 l -0.11024,0.144694 0.0413,0.261827 -0.11024,0.117133 v 0.179145 l -0.11714,-0.0689 0.0482,0.117134 v 0.110243 l 0.0689,0.09646 -0.0413,0.117134 0.0689,0.08268 v 0.592556 l 0.0413,0.110243 -0.0413,0.07579 h -0.0689 q 0.0276,0.165365 -0.0758,0.564996 -0.18603,-0.165364 -0.59256,-0.413411 -0.0827,-0.571886 -0.0827,-1.129992 0,-0.07579 0.0551,-0.399631 0.0551,-0.323839 0.0551,-0.454752 0,-0.103353 -0.0276,-0.144694 l 0.0344,-0.02756 q -0.0207,-0.468533 0.0413,-1.384928 l -0.22736,-0.482314 q -0.2136,0 -0.62012,0.303169 -0.39963,0.303168 -0.49609,0.544325 h -0.0413 q -0.50988,0.482313 -0.73725,1.019748 h -0.0827 q -0.19982,0.179145 -0.62012,0.744141 -0.33762,0.254937 -0.55122,0.213595 l -0.19292,0.08268 h -0.17226 q 0.11025,-0.110243 0.13781,-0.151584 l 0.17221,-0.117121 q 0.0551,-0.117133 0.22049,-0.254937 0.21359,-0.172255 0.26182,-0.220486 0.0758,-0.137804 0.23427,-0.37896 0.16536,-0.172255 0.48231,-0.523655 0.11714,-0.137804 0.44098,-0.592556 0,0 0.11024,-0.117133 l 0.0413,-0.206706 0.18603,-0.227377 q 0.12403,-0.02756 0.27561,-0.137803 0.17915,-0.130914 0.24116,-0.158475 0.0965,-0.04134 0.68213,-0.199815 l 0.50987,0.158474 0.31006,0.36518 q 0.0207,0.241157 0.0276,0.7028 l 0.0413,0.04134 0.17915,-0.36518 0.11713,-0.04134 v -0.137804 l 0.25494,-0.227377 0.40652,-0.117133 0.29628,0.03445 0.40652,0.406521 q -0.0344,0.117134 -0.0276,0.151585 h -0.0413 v 0.296278 l 0.11713,0.117133 0.0689,-0.04134 0.0413,-0.07579 h 0.11025 q 0.15158,0.186035 0.41341,0.413411 l -0.15848,0.3514 0.18604,0.199816 q 0,0.213595 0.2825,0.620117 l 0.28249,0.151584 0.0689,-0.04134 0.11024,0.08957 0.29628,-0.04823 0.18603,0.117133 z"
         style="fill:url(#linearGradient2351);fill-opacity:1;fill-rule:nonzero;stroke:#080000;stroke-opacity:1"
         id="path829"
         inkscape:connector-curvature="0" />
      <path
         d="m 121.14901,64.031346 q -0.0413,0.124024 -0.0413,0.861274 0,0.186035 -0.13091,0.564996 -0.12403,0.37207 -0.24116,0.551215 v 0.04134 l -0.0689,-0.04134 -0.0827,0.227376 -0.48232,0.36518 v 0.04134 h -0.0689 v 0.117133 l -0.44786,0.02756 -0.59945,-0.254937 -0.17914,-0.888835 0.29627,-0.08268 q 0.12403,0.275607 0.25494,0.675238 l 0.19293,0.137804 h 0.10335 l -0.0276,-0.02756 0.11024,-0.04134 v -0.0689 l 0.22738,-0.110243 0.1378,-0.158474 0.26872,-0.7028 q -0.0276,-0.813042 0.10335,-1.233344 l -0.0345,-0.137804 -0.0689,-0.08268 v -0.103353 l -0.19293,-0.337619 q 0.007,-0.04134 0.007,-0.08957 0,-0.192925 -0.17914,-0.509874 -0.20671,-0.35829 -0.24116,-0.482313 l -0.11024,-0.03445 -0.10335,-0.220486 -0.11025,0.137804 -0.0413,-0.09646 -0.0689,0.0689 h -0.15847 q 0,0.241157 -0.22738,0.440972 h -0.0276 l -0.15159,0.192926 -0.0276,-0.04134 q -0.22048,0.144694 -0.41341,0.406522 l -0.0827,0.413411 -0.14469,0.227376 0.0344,0.475424 0.11024,0.158474 q -0.14469,0.303168 -0.14469,0.957736 0,0.08268 0.0207,0.296279 0.0207,0.186035 0.0138,0.296278 l 0.0827,0.08268 q -0.007,0.117133 -0.062,0.385851 -0.0551,0.268717 -0.0551,0.392741 0,0.37207 0.0758,0.482313 l -0.0413,0.110243 0.0827,0.110243 v 0.158475 l 0.0276,0.0689 q 0,0.365181 -0.11024,0.592557 0.0413,0.337619 0.0413,0.36518 0,0.05512 -0.0413,0.158474 -0.0344,0.103353 -0.0344,0.151585 0,1.502061 0.18603,1.853461 l -0.0413,0.110243 h 0.11024 q 0.0207,0.206706 -0.0276,0.454753 l 0.10336,0.179144 v 0.268718 l 0.0413,0.0689 0.11024,0.07579 0.0413,0.0689 h -0.0413 v 0.151584 l -0.18604,-0.110243 -0.11024,0.110243 -0.15158,-0.0689 -0.1447,-0.192925 h -0.29628 l -0.29627,-0.213596 -0.15159,0.0689 -0.0758,-0.0689 H 116.829 l -0.0413,-0.117133 q 0.0965,-0.01378 0.26872,-0.151585 0.1378,-0.475423 0.11024,-0.551215 h 0.11713 q -0.11713,-0.227376 -0.11713,-0.523654 0.0896,-0.241157 0.18604,-0.516765 h -0.0689 q 0.0276,-0.144694 0.0276,-0.227376 0,-0.268717 -0.0276,-0.413411 l 0.0276,-0.0689 q -0.0551,-0.0689 -0.0344,-0.489204 0.0344,-0.668348 0.0344,-0.551215 0,-0.124024 -0.0344,-0.378961 -0.0345,-0.254937 -0.0345,-0.37207 0,-0.130914 0.0551,-0.406521 0.0551,-0.275608 0.0551,-0.413412 0,-0.05512 -0.0345,-0.172254 -0.0276,-0.117134 -0.0344,-0.165365 -0.0413,-0.36518 -0.0413,-0.778591 0,-0.220487 0.062,-0.613227 0.0827,-0.530545 0.0896,-0.613227 l 0.0689,-0.110243 q -0.0689,-0.950847 -0.0689,-1.157553 0,-0.144694 0.0689,-0.702799 l -0.11024,0.08268 -0.25494,0.523655 -0.0413,-0.04823 q -0.0551,0.186036 -0.29628,0.516765 -0.24116,0.323839 -0.40652,0.447862 v 0.220486 l -0.26872,0.34451 -0.0276,-0.04134 -0.22738,0.110243 -0.15847,-0.02756 -0.0276,0.137804 -0.0827,0.07579 0.0827,0.04134 -0.0827,0.04134 -0.1447,0.254937 q -0.23426,0.144694 -0.33762,0.268718 l -0.17914,0.02756 -0.062,0.08268 -0.11025,0.0689 q -0.0827,-0.05512 -0.28249,-0.110243 l 0.0413,-0.08268 0.15847,-0.07579 q 0.31006,-0.440972 0.55122,-0.516764 l 0.33762,-0.440972 q 0.15847,-0.05512 0.68901,-0.785482 0.48921,-0.668349 0.60634,-0.923286 l 0.15848,-0.124023 0.0276,-0.186035 0.11024,-0.02756 0.15847,-0.378961 -0.0413,-0.323838 0.11025,-0.227377 h 0.0413 q 0.0689,-0.220486 0.0689,-1.157552 0,-0.09646 -0.0413,-0.186035 l 0.11713,-0.04134 v -0.213596 l 0.0689,-0.04134 0.0827,0.04134 q 0.3514,-0.248047 0.52366,-0.261827 0.0276,-0.07579 0.2136,-0.254937 h 0.0827 l 0.0276,0.137803 q -0.0758,0.206706 -0.0965,0.599447 -0.0276,0.413412 -0.0896,0.599447 0.0758,0.213596 0.0758,0.323839 0,0.213596 -0.062,0.564995 -0.0689,0.406522 -0.0827,0.551216 l 0.0413,0.08268 -0.0827,0.551215 0.11024,0.04134 h 0.11714 l 0.11024,-0.179145 h 0.0413 l -0.0413,-0.08268 h 0.0689 q 0.0758,-0.137804 0.38585,-0.413411 0.39274,-0.172255 1.02664,-0.110244 l 0.26872,0.151585 h 0.11024 l 0.0758,0.117133 h 0.11025 v 0.110243 l 0.15847,0.186035 v 0.110243 l 0.0965,0.186035 v 0.110243 l 0.0827,0.110243 q 0.0827,0.186036 0.10335,0.654569 0.0207,0.440972 0.0827,0.530544 z"
         style="fill:url(#linearGradient2353);fill-opacity:1;fill-rule:nonzero;stroke:#080000;stroke-opacity:1"
         id="path831"
         inkscape:connector-curvature="0" />
      <path
         d="m 127.54311,65.319812 -0.0689,0.110243 -0.18604,0.103353 v 0.137804 l -0.18603,0.04134 -0.0413,0.0689 q -0.4203,0.199815 -0.63389,0.613227 l -0.36518,0.179145 v 0.0689 h -0.0413 l -0.0758,0.144694 -0.32384,0.137803 q -0.11713,0 -0.35829,0.0069 -0.24115,0.0069 -0.35829,0.0069 0.0965,0 -0.63389,-0.110243 l -0.0758,-0.04134 v 0.04134 l -0.33762,-0.0689 -0.73036,-0.633898 q -0.0413,-0.08268 -0.11714,-0.186035 -0.0689,-0.04823 -0.17914,-0.158474 -0.26183,-0.310059 -0.45476,-1.040419 -0.0413,-0.124024 -0.0896,-0.241157 -0.0482,-0.144694 -0.0207,-0.241156 l -0.0413,-0.110243 q 0.12402,-0.668349 0.0827,-1.185113 h 0.0276 l 0.33762,-0.633898 h 0.0413 q 0.79238,-1.012858 2.00505,-1.481391 l 0.48231,-0.04134 0.22738,0.137804 0.0413,0.110243 0.33762,0.158474 q 0.30317,0.268718 0.36518,0.551215 v 0.08268 l 0.0689,0.144694 v 0.337619 l 0.0758,0.0689 q 0.0207,0.37207 -0.14469,0.675239 l -0.11024,0.0689 0.0413,0.04823 q -0.0965,0.0689 -0.22738,0.296278 l -0.11024,0.0689 -0.0758,0.151584 -0.22049,0.103353 -0.0413,-0.02756 -0.14469,0.179145 h -0.11025 q -0.0896,0 -0.29628,-0.0689 l -0.15847,-0.158474 q -0.0413,-0.544325 -0.22738,-0.744141 l 0.0482,-0.186035 q -0.0758,-0.206705 -0.0758,-0.323839 0,-0.110243 0.0276,-0.310058 l 0.15848,-0.213596 0.11024,-0.04134 0.18604,0.07579 0.0413,0.151584 -0.19982,0.406521 0.0482,0.372071 q 0.11714,0.323839 0.33762,0.475423 l 0.13781,-0.206706 0.0827,-0.04823 q 0.12402,-0.227377 0.33073,-0.7028 l -0.0344,-0.110243 -0.11025,-0.04134 q 0.0207,-0.34451 -0.0413,-0.668349 l -0.0689,-0.0689 v -0.199816 l -0.11713,-0.09646 -0.15159,-0.04134 v -0.04134 l -0.29628,-0.02756 q -0.68212,0.110243 -1.00596,0.771702 l 0.0482,0.158474 -0.38585,0.661458 h -0.0276 l -0.0413,0.158475 h -0.0413 q -0.0138,0.165364 -0.14469,0.544325 h 0.0482 l -0.15847,0.117133 q 0,0.261827 0.0689,0.744141 l -0.0689,0.186035 q 0.007,0.103353 0.10335,0.578776 0.0896,0.440972 0.0827,0.496094 0.12403,0.124023 0.22049,0.447862 l 0.41341,0.254937 v 0.08268 l 0.7717,0.227377 q 0.41341,-0.151585 0.64079,-0.110243 l 0.0413,-0.04134 v -0.04823 l 0.22049,-0.179145 0.18603,-0.02756 0.22738,-0.158474 0.0276,-0.0689 0.18603,-0.04134 0.0413,-0.144694 0.40653,-0.110243 0.18603,-0.158474 h 0.0276 l 0.40652,-0.33762 h 0.0138 l 0.11714,0.04134 z"
         style="fill:url(#linearGradient2355);fill-opacity:1;fill-rule:nonzero;stroke:#080000;stroke-opacity:1"
         id="path833"
         inkscape:connector-curvature="0" />
    </g>
  </g>
</svg>
